<?xml version="1.0" standalone="no"?>
<!DOCTYPE svg PUBLIC "-//W3C//DTD SVG 1.1//EN" "http://www.w3.org/Graphics/SVG/1.1/DTD/svg11.dtd" >
<!--
2014-7-25: Created.
-->
<svg xmlns="http://www.w3.org/2000/svg">
<metadata>
Created by FontForge 20120731 at Fri Jul 25 12:59:20 2014
 By Ruiz, Roger
Created by Ruiz, Roger with FontForge 2.0 (http://fontforge.sf.net)
</metadata>
<defs>
<font id="cne-icon" horiz-adv-x="512" >
  <font-face 
    font-family="cne-icon"
    font-weight="500"
    font-stretch="normal"
    units-per-em="512"
    panose-1="2 0 6 9 0 0 0 0 0 0"
    ascent="448"
    descent="-64"
    bbox="-0.355469 -64.0532 512 448.355"
    underline-thickness="25.6"
    underline-position="-51.2"
    unicode-range="U+F100-F129"
  />
    <missing-glyph />
    <glyph glyph-name="uniF10C" unicode="&#xf10c;" 
d="M512 448v-416h-128l-96 -96v96h-288v416h512zM448 384h-384v-288h384v288z" />
    <glyph glyph-name="uniF11D" unicode="&#xf11d;" 
d="M192 256v64c0 70.4004 57.5996 128 118.4 128h73.5996v-128h-64v-64h64v-128h-64v-192h-128v192h-64v128h64z" />
    <glyph glyph-name="uniF11E" unicode="&#xf11e;" 
d="M256 160c12.7998 -12.7998 25.5996 -22.4004 35.2002 -35.2002c9.59961 -12.7998 16 -28.7998 16 -48c0 -25.5996 -12.7998 -51.2002 -41.6006 -73.5996c-32 -22.4004 -73.5996 -35.2002 -128 -35.2002c-44.7998 0 -80 9.59961 -102.399 25.5996
c-22.4004 16 -35.2002 35.2002 -35.2002 57.6006c0 9.59961 3.2002 22.3994 12.7998 35.2002c6.40039 12.7998 19.2002 25.5996 38.4004 35.1992c22.3994 12.8008 44.7998 19.2002 67.2002 22.4004c22.3994 3.2002 41.5996 3.2002 57.5996 3.2002
c-6.40039 6.39941 -9.59961 12.7998 -12.7998 19.2002c-3.2002 6.39941 -6.40039 12.7998 -6.40039 22.3994c0 3.2002 0 6.40039 3.2002 12.7998c0 3.2002 3.2002 6.40039 3.2002 6.40039h-22.4004c-35.2002 0 -60.7998 9.59961 -80 28.7998s-28.7998 38.4004 -28.7998 64
c0 28.7998 16 54.4004 41.5996 80c19.2002 12.7998 38.4004 22.4004 57.6006 28.7998c22.3994 3.2002 38.3994 6.40039 57.5996 6.40039h131.2l-38.4004 -28.7998h-41.5996c3.2002 0 6.40039 -3.2002 12.7998 -9.60059c6.40039 -3.19922 9.60059 -9.59961 16 -16
c3.2002 -6.39941 6.40039 -12.7998 12.7998 -22.3994c3.2002 -6.40039 3.2002 -16 3.2002 -28.7998c0 -22.4004 -6.39941 -38.4004 -16 -51.2002c-6.39941 -6.40039 -9.59961 -9.60059 -16 -16c-6.39941 -6.40039 -12.7998 -9.60059 -19.2002 -16
c-3.19922 -3.2002 -9.59961 -6.40039 -9.59961 -12.7998c-3.2002 -3.2002 -6.40039 -9.60059 -6.40039 -16c0 -6.40039 0 -9.60059 3.2002 -12.8008c6.40039 -6.39941 9.60059 -9.59961 12.7998 -9.59961zM172.8 246.4c9.60059 0 19.2002 3.19922 32 12.7998
c3.2002 6.39941 6.40039 9.59961 6.40039 16v12.7998c0 16 -6.40039 32 -16 48c-3.2002 6.40039 -9.60059 12.7998 -16 19.2002c-6.40039 3.2002 -16 6.39941 -25.6006 6.39941c-12.7998 0 -22.3994 -3.19922 -32 -12.7998
c-6.39941 -6.39941 -9.59961 -19.2002 -9.59961 -28.7998c0 -16 6.40039 -32 16 -48c3.2002 -6.40039 9.59961 -12.7998 16 -19.2002c9.59961 -3.2002 16 -6.39941 28.7998 -6.39941zM201.6 32c9.60059 6.40039 12.8008 12.7998 12.8008 22.4004
c0 9.59961 -3.2002 16 -9.60059 22.3994c-6.39941 6.40039 -16 12.7998 -28.7998 22.4004h-9.59961h-12.8008c-9.59961 -3.2002 -16 -3.2002 -25.5996 0c0 0 -3.2002 -3.2002 -6.40039 -3.2002c-3.19922 -3.2002 -6.39941 -3.2002 -9.59961 -6.40039
c-3.2002 -3.19922 -6.40039 -6.39941 -9.59961 -9.59961c-3.2002 -6.40039 -3.2002 -9.59961 -3.2002 -16c0 -12.7998 3.2002 -22.4004 16 -28.7998c9.59961 -9.60059 25.5996 -12.7998 44.7998 -12.7998s32 3.19922 41.5996 9.59961zM384 256v64h64v-64h64v-64h-64v-64h-64
v64h-64v64h64z" />
    <glyph glyph-name="uniF112" unicode="&#xf112;" 
d="M256 448c140.8 0 256 -115.2 256 -256s-115.2 -256 -256 -256s-256 115.2 -256 256s115.2 256 256 256zM256 0c105.6 0 192 86.4004 192 192s-86.4004 192 -192 192s-192 -86.4004 -192 -192s86.4004 -192 192 -192zM224 256l-6.40039 -6.40039v-9.59961l3.2002 -9.59961
l3.2002 -6.40039s9.59961 -9.59961 0 -16c0 0 -12.7998 0 -12.7998 3.2002s-16 12.7998 -19.2002 16s-12.7998 6.39941 -12.7998 6.39941l-9.60059 3.2002h-9.59961v12.7998v12.8008l-3.2002 6.39941l-12.7998 9.60059v9.59961v6.40039
c28.7998 25.5996 67.2002 41.5996 108.8 38.3994c22.4004 0 44.7998 -6.39941 64 -16v-3.2002l-19.2002 -12.7998l-16 -6.39941l-6.39941 -16l-9.60059 -6.40039h-28.7998l-12.7998 -6.40039v-9.59961zM377.6 153.6l3.2002 -12.7998l3.2002 -6.39941v-12.8008v-6.39941
c-9.59961 -16 -19.2002 -28.7998 -32 -38.4004l-6.40039 -3.2002l-16 -9.59961l-9.59961 -6.40039c-6.40039 -3.19922 -16 -6.39941 -22.4004 -9.59961v9.59961l-3.19922 22.4004s0 12.7998 -3.2002 16s-6.40039 6.40039 -12.7998 6.40039
c-3.2002 3.19922 -6.40039 3.19922 -9.60059 6.39941s-6.39941 9.60059 -9.59961 16c-3.2002 6.40039 -6.40039 9.60059 -6.40039 12.7998v28.8008l3.2002 25.5996l6.40039 6.40039l9.59961 9.59961h6.40039l22.3994 -3.2002h12.7998l6.40039 -12.7998l12.7998 -12.7998
l9.60059 -12.7998l12.7998 -3.2002h12.7998z" />
    <glyph glyph-name="uniF106" unicode="&#xf106;" 
d="M510.714 113.688l-95.5176 -95.5176l-159.196 159.196l-159.196 -159.196l-95.5176 95.5176l254.714 254.714z" />
    <glyph glyph-name="uniF11C" unicode="&#xf11c;" 
d="M256 448l96 -96h-64v-224h-64v224h-64zM32 320h64v-320h320v320h64v-384h-448v384z" />
    <glyph glyph-name="uniF122" unicode="&#xf122;" 
d="M487.822 448c17.7773 0 24.1777 -6.40039 24.1777 -24.1777v-463.645c0 -17.7773 -6.40039 -24.1777 -24.1777 -24.1777h-463.645c-17.7773 0 -24.1777 6.40039 -24.1777 24.1777v463.645c0 17.7773 6.40039 24.1777 24.1777 24.1777h463.645zM358.4 52.9775v48.6406
c-25.7422 -10.0986 -33.0674 -15.2178 -48.9248 -15.2178c-8.95996 0 -13.6533 -2.56055 -22.2578 4.4082c-9.24414 7.53809 -5.33301 56.0361 -5.33301 73.9561l-0.355469 52.7646h51.2705l-0.0712891 51.1992l-51.1289 0.0712891v76.7998h-58.9512
c-1.99023 -15.9287 -7.18164 -29.7236 -12.5146 -40.0352c-5.2627 -10.3115 -11.876 -20.3379 -20.623 -27.6621c-8.81738 -7.32422 -10.2393 -11.8047 -35.9814 -15.7871v-44.9424h51.1992v-107.093c0 -14.1514 -0.355469 -27.4492 2.63184 -34.8447
c3.05762 -7.4668 3.76855 -12.1602 11.5195 -18.7734c7.82227 -6.61328 12.7295 -11.3779 23.751 -15.0039c11.0225 -3.55566 24.5332 -5.33398 38.8271 -5.33398c12.5869 0 26.5244 1.28027 37.4043 3.76953c10.8086 2.48828 17.5645 5.33301 39.5381 13.084z" />
    <glyph glyph-name="uniF109" unicode="&#xf109;" 
d="M448 256c35.2002 0 64 -28.7998 64 -64s-28.7998 -64 -64 -64s-64 28.7998 -64 64s28.7998 64 64 64zM448 160c19.2002 0 32 12.7998 32 32s-12.7998 32 -32 32s-32 -12.7998 -32 -32s12.7998 -32 32 -32zM64 64c35.2002 0 64 -28.7998 64 -64s-28.7998 -64 -64 -64
s-64 28.7998 -64 64s28.7998 64 64 64zM64 -32c19.2002 0 32 12.7998 32 32s-12.7998 32 -32 32s-32 -12.7998 -32 -32s12.7998 -32 32 -32zM448 320c-35.2002 0 -64 28.7998 -64 64s28.7998 64 64 64s64 -28.7998 64 -64s-28.7998 -64 -64 -64zM448 416
c-19.2002 0 -32 -12.7998 -32 -32s12.7998 -32 32 -32s32 12.7998 32 32s-12.7998 32 -32 32zM256 256c35.2002 0 64 -28.7998 64 -64s-28.7998 -64 -64 -64s-64 28.7998 -64 64s28.7998 64 64 64zM256 160c19.2002 0 32 12.7998 32 32s-12.7998 32 -32 32
s-32 -12.7998 -32 -32s12.7998 -32 32 -32zM256 448c35.2002 0 64 -28.7998 64 -64s-28.7998 -64 -64 -64s-64 28.7998 -64 64s28.7998 64 64 64zM256 352c19.2002 0 32 12.7998 32 32s-12.7998 32 -32 32s-32 -12.7998 -32 -32s12.7998 -32 32 -32zM256 64
c35.2002 0 64 -28.7998 64 -64s-28.7998 -64 -64 -64s-64 28.7998 -64 64s28.7998 64 64 64zM256 -32c19.2002 0 32 12.7998 32 32s-12.7998 32 -32 32s-32 -12.7998 -32 -32s12.7998 -32 32 -32zM64 256c35.2002 0 64 -28.7998 64 -64s-28.7998 -64 -64 -64
s-64 28.7998 -64 64s28.7998 64 64 64zM64 160c19.2002 0 32 12.7998 32 32s-12.7998 32 -32 32s-32 -12.7998 -32 -32s12.7998 -32 32 -32zM64 448c35.2002 0 64 -28.7998 64 -64s-28.7998 -64 -64 -64s-64 28.7998 -64 64s28.7998 64 64 64zM64 352
c19.2002 0 32 12.7998 32 32s-12.7998 32 -32 32s-32 -12.7998 -32 -32s12.7998 -32 32 -32zM448 64c35.2002 0 64 -28.7998 64 -64s-28.7998 -64 -64 -64s-64 28.7998 -64 64s28.7998 64 64 64zM448 -32c19.2002 0 32 12.7998 32 32s-12.7998 32 -32 32
s-32 -12.7998 -32 -32s12.7998 -32 32 -32z" />
    <glyph glyph-name="uniF125" unicode="&#xf125;" 
d="M256 448c140.8 0 256 -115.2 256 -256s-115.2 -256 -256 -256s-256 115.2 -256 256s115.2 256 256 256zM256 0c105.6 0 192 86.4004 192 192s-86.4004 192 -192 192s-192 -86.4004 -192 -192s86.4004 -192 192 -192zM224 288h64v-64h64v-64h-64v-64h-64v64h-64v64h64v64z
" />
    <glyph glyph-name="uniF119" unicode="&#xf119;" 
d="M416 224v-64h-128v-128h-64v128h-128v64h128v128h64v-128h128z" />
    <glyph glyph-name="uniF10B" unicode="&#xf10b;" 
d="M360.433 267.192l-75.0479 -75.1113l75.0479 -75.1113l-29.8516 -29.8506l-75.1113 75.1094l-75.0469 -75.1094l-29.916 29.8506l75.1113 75.1113l-75.1113 75.1113l29.916 29.8516l75.0469 -75.1113l75.1113 75.1113zM255.791 446.433
c140.399 0 254.224 -113.823 254.224 -254.224s-113.824 -254.224 -254.224 -254.224c-140.4 0 -254.224 113.824 -254.224 254.224c0 140.4 113.823 254.224 254.224 254.224zM255.854 -19.6436c116.969 0 211.854 94.8848 211.854 211.853
c0 117.033 -94.8193 211.854 -211.854 211.854c-116.968 0 -211.853 -94.8203 -211.853 -211.854c0 -117.032 94.8848 -211.853 211.853 -211.853z" />
    <glyph glyph-name="uniF10A" unicode="&#xf10a;" 
d="M0 137.6l134.4 -67.1992l361.6 377.6h16v-16l-377.6 -496l-134.4 140.8v60.7998z" />
    <glyph glyph-name="uniF101" unicode="&#xf101;" 
d="M1.28613 272.885l95.5176 95.5176l159.196 -159.196l159.196 159.196l95.5176 -95.5176l-254.714 -254.714z" />
    <glyph glyph-name="uniF11F" unicode="&#xf11f;" 
d="M512 0v-64v0h-64v0h-384v0h-64v0v128v0v224v0v160h32h128v0h192v0h160v0v-64v0v-384v0zM256 256c-57.5996 0 -64 -64 -64 -64s-3.2002 -64 64 -64s64 64 64 64s-6.40039 64 -64 64zM448 384h-96v-96h96v96zM448 192v0v32h-64v0h-3.2002
c0 -9.59961 3.2002 -22.4004 3.2002 -32v0v0v0c0 -70.4004 -57.5996 -128 -128 -128s-128 57.5996 -128 128c0 9.59961 3.2002 22.4004 3.2002 32h-3.2002v0h-64v-224h64h32v0h192v0h96v96v0v96z" />
    <glyph glyph-name="uniF118" unicode="&#xf118;" 
d="M512 224v-64h-224v-224h-64v224h-224v64h224v224h64v-224h224z" />
    <glyph glyph-name="uniF126" unicode="&#xf126;" 
d="M61.8984 148.444c-6.55859 1.43945 -11.8887 2.25586 -14.8604 3.38184c-2.1543 0.820312 -2.76562 2.25391 -2.66602 3.48145c0.103516 2.77051 3.07617 4.81445 7.27441 5.02441c4.91992 0.305664 12.4014 -1.9502 17.3193 -7.07227l30.9502 14.5547
c-7.48047 10.4551 -24.9023 22.0352 -48.2676 22.0352c-26.8506 0 -47.8584 -15.7832 -47.8584 -39.4531c0 -26.3408 22.6484 -32.4883 38.7383 -35.666c6.66406 -1.12891 11.2754 -1.54004 13.9375 -2.77246c0.511719 -0.206055 3.38184 -1.33203 2.77051 -4.20215
c-0.512695 -2.56152 -2.25586 -4.09961 -6.45801 -4.60938c-3.69043 -0.512695 -8.4043 0.919922 -12.7061 3.48145c-1.64062 1.02832 -3.18066 2.25391 -4.50781 3.58594l-35.5605 -17.3154c10.6582 -12.9141 27.2598 -22.2383 52.8799 -22.2383
c30.334 0 48.4746 17.9316 48.4746 41.2939c-0.00878906 25.9336 -22.8584 32.8018 -39.46 36.4902zM511.996 153.876h-39.6602v-7.99414h39.6602v-31.1514h-39.6602v-7.99414h39.6602v-34.2285h-76.7617v115.494h76.7617v-34.126zM51.1338 198.868v81.6777h-27.4639
v33.8184h88.8545v-33.8184h-26.2363v-81.6777h-35.1543zM161.508 237.81v-38.9414h-38.9395v115.496h40.9912v-36.8945h16.3965v36.8945h40.9941v-114.78h-41.3018v38.2256h-18.1406zM383.176 147.524v39.9697h40.1719v-115.5h-36.4834l-27.668 44.7861v-44.7861h-40.0723
v115.5h39.458zM231.196 142.604l61.3857 45.3984h15.3721v-34.126h-39.6621v-7.99414h39.6621v-31.1514h-39.6621v-7.99414h39.6621v-34.2285h-76.7578v70.0957zM229.146 244.37v69.9941h77.8896v-32.7959h-36.9004v-8.19629h36.9004v-32.7959h-36.9004v-8.19629h36.9004
v-32.7959h-17.4258zM221.154 118.726l-40.7881 0.100586c-2.7666 -6.35254 -9.12012 -9.12402 -16.8066 -9.12402c-12.8115 0 -17.834 8.81348 -17.834 20.292c0 11.374 6.55859 20.1895 17.7285 20.1895c7.37988 0 11.9922 -2.15137 15.0635 -7.68555h41.916
c0.208008 11.0684 -6.76367 26.4404 -20.3916 36.3799c-7.8916 5.8418 -17.834 10.8662 -37.6123 10.8662c-33.8174 0 -59.0293 -27.5664 -59.0293 -59.8506c0 -18.8574 7.58398 -35.666 20.7012 -46.5273c10.0449 -8.60645 23.2646 -13.7324 38.9443 -13.7324
c24.082 0 41.6084 11.4785 50.2139 25.1104c3.38184 5.53418 4.10254 7.58203 4.10254 7.58203c2.14941 5.02344 3.47949 10.5576 3.79199 16.3994z" />
    <glyph glyph-name="uniF104" unicode="&#xf104;" 
d="M177.293 -64l-96 96l160 160l-160 160l96 96l256 -256z" />
    <glyph glyph-name="uniF108" unicode="&#xf108;" 
d="M256 192c-22.4004 0 -41.5996 16 -41.5996 41.5996v44.8008c0 22.3994 19.1992 41.5996 41.5996 41.5996s41.5996 -19.2002 41.5996 -41.5996v-44.8008c0 -22.3994 -19.1992 -41.5996 -41.5996 -41.5996zM352 118.4v-54.4004h-192v54.4004
c0 22.3994 41.5996 41.5996 96 41.5996s96 -19.2002 96 -41.5996zM0 448h512v-512h-512v512zM448 0v384h-384v-384h384z" />
    <glyph glyph-name="uniF129" unicode="&#xf129;" 
d="M224 128zM224 128v64v96h64v-96h64v-64h-64h-64zM0 -64v512h512v-512h-512zM448 384h-384v-384h384v384z" />
    <glyph glyph-name="uniF127" unicode="&#xf127;" 
d="M64 -64v352h384v-352h-384zM384 224h-256v-224h256v224zM32 320v64h448v-64h-448zM160 384v64h192v-64h-192z" />
    <glyph glyph-name="uniF115" unicode="&#xf115;" 
d="M0 352v96h512v-96h-512zM0 192v96h512v-96h-512zM0 32v96h512v-96h-512z" />
    <glyph glyph-name="uniF107" unicode="&#xf107;" 
d="M256 192c-54.4004 0 -96 41.5996 -96 96v64c0 54.4004 41.5996 96 96 96s96 -41.5996 96 -96v-64c0 -54.4004 -41.5996 -96 -96 -96zM256 128c124.8 0 224 -41.5996 224 -96v-96h-448v96s99.2002 96 224 96z" />
    <glyph glyph-name="uniF105" unicode="&#xf105;" 
d="M157.648 -63.666l-57.5195 57.5195l198.834 198.834l-197.415 197.413l57.5205 57.5195l254.225 -254.933z" />
    <glyph glyph-name="uniF117" unicode="&#xf117;" 
d="M192 384h128v-128h128v-128h-128v-128h-128v128h-128v128h128v128z" />
    <glyph glyph-name="uniF100" unicode="&#xf100;" 
d="M224 288h64v-64h64v-64h-64v-64h-64v64h-64v64h64v64zM0 -64v512h512v-512h-512zM448 384h-384v-384h384v384z" />
    <glyph glyph-name="uniF120" unicode="&#xf120;" 
d="M80 448c28.7998 0 51.2002 -22.4004 48 -48c0 -25.5996 -22.4004 -48 -48 -48s-48 22.4004 -48 48s22.4004 48 48 48zM32 -32v320h96v-320h-96zM364.8 294.4c102.4 0 115.2 -67.2002 115.2 -153.601v-172.8h-96v153.6c0 38.4004 3.2002 86.4004 -48 86.4004
s-48 -41.5996 -48 -83.2002v-156.8h-96v320h96v-44.7998v0c12.7998 25.5996 28.7998 51.2002 76.7998 51.2002z" />
    <glyph glyph-name="uniF116" unicode="&#xf116;" 
d="M192 448h128v-192h192v-128h-192v-192h-128v192h-192v128h192v192z" />
    <glyph glyph-name="uniF10D" unicode="&#xf10d;" 
d="M128 131.557h256.711v-56.8906h-256.711v56.8906zM128 220.444h256.711v-56.8877h-256.711v56.8877zM128 309.333h256.711v-56.8896h-256.711v56.8896zM256 448c141.511 0 255.289 -115.2 255.289 -256s-113.777 -255.289 -255.289 -255.289s-255.289 115.2 -255.289 256
s113.778 255.289 255.289 255.289zM256 -20.6221c117.333 0 213.333 95.2881 213.333 212.622c0 118.044 -96 213.333 -213.333 213.333s-213.333 -94.5781 -213.333 -212.622c0 -118.045 96 -213.333 213.333 -213.333z" />
    <glyph glyph-name="uniF113" unicode="&#xf113;" 
d="M0 320v128h128v-128h-128zM192 320v128h128v-128h-128zM384 320v128h128v-128h-128zM0 128v128h128v-128h-128zM192 128v128h128v-128h-128zM384 128v128h128v-128h-128zM0 -64v128h128v-128h-128zM192 -64v128h128v-128h-128zM384 -64v128h128v-128h-128z" />
    <glyph glyph-name="uniF124" unicode="&#xf124;" 
d="M192 96v192l185.6 -96zM256 384v0s-108.8 0 -179.2 -6.40039c-9.59961 0 -32 0 -51.2002 -22.3994c-16 -12.7998 -19.1992 -48 -19.1992 -48s-6.40039 -41.6006 -6.40039 -83.2002v-64c0 -41.5996 6.40039 -83.2002 6.40039 -83.2002s6.39941 -35.2002 19.1992 -51.2002
c19.2002 -19.1992 44.8008 -19.1992 57.6006 -22.3994c38.3994 -3.2002 172.8 -3.2002 172.8 -3.2002v0s108.8 0 179.2 6.40039c9.59961 0 32 0 51.2002 22.3994c16 16 19.1992 51.2002 19.1992 51.2002s6.40039 38.4004 6.40039 80v64
c0 41.5996 -6.40039 83.2002 -6.40039 83.2002s-6.39941 35.2002 -19.1992 51.2002c-19.2002 19.1992 -41.6006 19.1992 -51.2002 22.3994c-70.4004 3.2002 -179.2 3.2002 -179.2 3.2002z" />
    <glyph glyph-name="uniF103" unicode="&#xf103;" 
d="M353.855 445.44l57.7275 -57.0254l-197.119 -197.119l195.009 -195.711l-57.0244 -57.0254l-252.033 252.736z" />
    <glyph glyph-name="uniF123" unicode="&#xf123;" 
d="M480 358.4c-12.7998 -22.4004 -28.7998 -41.6006 -44.7998 -57.6006v-12.7998c0 -147.2 -99.2002 -313.6 -275.2 -313.6c-54.4004 0 -105.6 16 -147.2 48h22.4004c44.7998 0 86.3994 19.1992 118.399 48c-41.5996 0 -76.7998 32 -89.5996 76.7998
c6.40039 -3.2002 12.7998 -3.2002 19.2002 -3.2002c9.59961 0 16 0 25.5996 3.2002c-44.7998 9.59961 -76.7998 54.3994 -76.7998 108.8v0c12.7998 -6.40039 25.5996 -12.7998 41.5996 -16c-25.5996 22.4004 -41.5996 54.4004 -41.5996 92.7998
c0 22.4004 6.40039 41.6006 12.7998 57.6006c48 -67.2002 118.4 -112 198.4 -112c-3.2002 9.59961 -3.2002 16 -3.2002 25.5996c0 60.7998 41.5996 108.8 96 108.8c28.7998 0 54.4004 -12.7998 70.4004 -35.2002c22.3994 3.2002 41.5996 12.8008 60.7998 25.6006
c-6.40039 -25.6006 -22.4004 -48 -41.6006 -60.7998c19.2002 0 38.4004 6.39941 54.4004 16z" />
    <glyph glyph-name="uniF121" unicode="&#xf121;" 
d="M256 448c141.369 0 256 -114.631 256 -256s-114.631 -256 -256 -256s-256 114.631 -256 256s114.631 256 256 256zM280.32 110.08c84.0527 -6.40039 130.986 81.4932 119.537 162.702c-10.1689 71.8936 -83.9111 108.516 -162.56 99.9824
c-62.1514 -6.82715 -124.16 -55.751 -126.72 -125.582c-1.63574 -42.667 10.8799 -74.7383 52.6221 -83.6982c18.0625 31.0752 2.27539 35.627 -1.1377 56.249c-14.0088 84.124 99.7686 141.511 159.359 82.7734c41.2451 -40.6758 14.0801 -165.831 -52.4795 -152.818
c-63.6445 12.4453 31.2178 112.071 -19.627 131.627c-41.3154 15.9287 -63.2891 -48.5684 -43.6621 -80.6396c-11.4492 -55.1113 -43.9463 -114.845 -32.9951 -190.578c35.626 25.1025 47.5732 73.1025 57.457 123.235c17.8496 -10.5957 27.4492 -21.6172 50.2051 -23.2529z
" />
    <glyph glyph-name="uniF11A" unicode="&#xf11a;" 
d="M512 3.2002l-70.4004 -67.2002l-153.6 153.6c-28.7998 -16 -60.7998 -25.5996 -96 -25.5996c-105.6 0 -192 86.4004 -192 192s86.4004 192 192 192s192 -86.4004 192 -192c0 -35.2002 -9.59961 -70.4004 -25.5996 -99.2002zM192 156.8
c54.4004 0 99.2002 44.7998 99.2002 99.2002s-44.7998 99.2002 -99.2002 99.2002s-99.2002 -44.7998 -99.2002 -99.2002s44.7998 -99.2002 99.2002 -99.2002z" />
    <glyph glyph-name="uniF114" unicode="&#xf114;" 
d="M512 -64h-512v512h512v-512zM448 384h-64v0h-256v0h-64v-384h64v0h256v0h64v384zM128 128h256v-64h-256v64zM128 224h256v-64h-256v64zM128 320h256v-64h-256v64z" />
    <glyph glyph-name="uniF110" unicode="&#xf110;" 
d="M511.645 192.355c0 -141.369 -114.631 -256 -256 -256s-256 114.631 -256 256s114.631 256 256 256s256 -114.631 256 -256zM155.378 192.711l85.0488 85.0488l-42.0977 42.1689l-127.573 -127.502l127.004 -127.005l42.7383 42.8799zM357.404 192.498l-84.9062 -84.9072
l42.5957 -42.5957l127.502 127.503l-127.289 127.289l-42.5957 -42.5957z" />
    <glyph glyph-name="uniF11B" unicode="&#xf11b;" 
d="M512 153.6l-57.5996 -9.59961c-3.2002 -19.2002 -12.8008 -38.4004 -22.4004 -54.4004l32 -48l-57.5996 -57.5996l-48 32c-16 -9.59961 -32 -16 -51.2002 -22.4004v0l-12.7998 -57.5996h-80l-12.8008 54.4004c-16 6.39941 -35.1992 12.7998 -51.1992 22.3994l-48 -32
l-57.6006 57.6006l32 48c-9.59961 16 -16 35.1992 -22.3994 54.3994l-54.4004 12.7998v80l57.5996 12.8008c3.2002 19.1992 12.8008 35.1992 22.4004 51.1992l-32 48l57.5996 57.6006l48 -32c16 6.39941 32 16 51.2002 19.2002l9.60059 57.5996h80l12.7998 -54.4004v0
c19.2002 -6.39941 35.2002 -12.7998 51.2002 -22.3994v0l48 32l57.5996 -57.6006l-32 -48c9.59961 -16 16 -32 22.4004 -51.1992l57.5996 -12.8008v-80zM256 64c70.4004 0 128 57.5996 128 128s-57.5996 128 -128 128s-128 -57.5996 -128 -128s57.5996 -128 128 -128z" />
    <glyph glyph-name="uniF111" unicode="&#xf111;" 
d="M256 -64c-6.40039 0 -9.59961 3.2002 -16 6.40039c-6.40039 9.59961 -240 224 -240 364.8c0 76.7998 73.5996 140.8 147.2 140.8c44.7998 0 86.3994 -22.4004 108.8 -60.7998c25.5996 38.3994 64 60.7998 108.8 60.7998c73.6006 0 147.2 -64 147.2 -140.8
c0 -140.8 -230.4 -355.2 -240 -364.8c-3.2002 -3.2002 -9.59961 -6.40039 -16 -6.40039zM236.8 320c-6.39941 41.5996 -41.5996 64 -80 64c-44.7998 0 -92.7998 -38.4004 -92.7998 -86.4004c0 -83.1992 131.2 -227.199 192 -291.199c60.7998 64 192 204.8 192 291.199
c0 48 -48 86.4004 -89.5996 86.4004c-41.6006 0 -73.6006 -22.4004 -80 -64h-41.6006z" />
    <glyph glyph-name="uniF10E" unicode="&#xf10e;" 
d="M244.267 70.542c6.54199 -6.11523 17.1377 -6.11523 23.6797 0l82.916 76.7998c6.54199 6.04492 17.1377 6.04492 23.6797 0l137.458 -130.133v-33.5645c0 -16.498 -6.61328 -22.0449 -24.3906 -22.0449h-463.219c-17.7773 0 -24.3906 5.54688 -24.3906 22.0449v33.6357
l140.729 130.062c6.54297 6.04492 17.1377 6.04492 23.6807 0zM420.551 189.938c-6.61328 5.97363 -6.61328 15.7871 0 21.8311l79.6445 76.8711c6.47168 6.04492 11.8047 3.76953 11.8047 -5.12012v-165.262c0 -8.88867 -5.2627 -11.1641 -11.8047 -5.12012z
M24.3906 422.329v0l463.219 0.0712891c17.7773 0 24.3906 -8.32031 24.3906 -24.8184v-10.666l-245.404 -231.396c-6.54199 -6.04395 -17.0664 -6.04395 -23.6094 0l-242.986 236.658v-2.55957c0 16.4971 6.61328 32.7109 24.3906 32.7109zM0 283.52
c0 8.88965 5.33301 11.165 11.8047 5.12012l82.8438 -76.8711c6.61426 -6.04395 6.61426 -15.8574 0 -21.9023l-82.8438 -76.7998c-6.47168 -6.04395 -11.8047 -3.76855 -11.8047 5.12012v165.333z" />
    <glyph glyph-name="uniF128" unicode="&#xf128;" 
d="M504.249 282.098c10.3105 -10.2402 10.3105 -26.9512 0 -37.2617l-105.742 -105.742c-10.3115 -10.3115 -27.0225 -10.3115 -37.334 0l-33.9199 33.9199l90.2402 90.1689l-90.2402 90.2393l-90.1689 -90.2393l-33.9902 33.9902
c-10.3115 10.3115 -10.3115 27.0225 0 37.334l105.671 105.742c10.3105 10.3105 27.0225 10.3105 37.333 0zM274.773 120.533l33.9912 -33.9912c10.3105 -10.3105 10.3105 -27.0225 0 -37.333l-105.529 -105.529c-10.3105 -10.3105 -27.0225 -10.3105 -37.333 0
l-158.151 158.151c-10.3105 10.3115 -10.3105 27.0225 0 37.333l105.529 105.601c10.3105 10.3105 27.0215 10.3105 37.333 0l33.9912 -33.9912l-90.0264 -90.0264l90.1689 -90.2402zM172.302 147.698c-5.68848 5.68848 -5.68848 14.8613 0 20.5508l107.308 107.307
c5.61719 5.68848 14.791 5.68848 20.4795 0l39.6094 -39.6797c5.68848 -5.61816 5.68848 -14.792 0 -20.4805l-107.308 -107.307c-5.61719 -5.68848 -14.791 -5.68848 -20.4795 0z" />
    <glyph glyph-name="uniF102" unicode="&#xf102;" 
d="M336 448l96 -96l-160 -160l160 -160l-96 -96l-256 256z" />
    <glyph glyph-name="uniF10F" unicode="&#xf10f;" 
d="M160 352l64 -64l-96 -96l96 -96l-64 -64l-160 160zM352 352l160 -160l-160 -160l-64 64l96 96l-96 96z" />
  </font>
</defs>
</svg>
